<?xml version="1.0" encoding="UTF-8"?><svg id="a" xmlns="http://www.w3.org/2000/svg" viewBox="0 0 48 48"><path d="M13.61,31.07c-1.75.01-3.32-1.19-3.43-3.01-.13-2.26.54-5.12.49-7.44l.09-3.64.16-.23c1.26-.13,2.61.21,3.13,1.46.4.96.09,1.99.05,3-.15,3.29-.31,6.58-.49,9.87Z"/><path d="M16.35,32.84c.21,1.74.4,4.23,2.65,4.32l-.09.44c-1.19.06-2.28-.11-3.31-.72-1.16-.69-2.16-1.84-2.55-3.14-.04-.12-.17-.38-.03-.46l3.34-.44Z"/><path d="M30.29,31.47c.1.06.21,1.74.21,2.01-.03,1.22-.47,2.67-1.1,3.71-.15.24-.58,1.03-.89.94l-2.62-2.05c2.19.68,3.68-2.28,4.08-4.02.06-.26-.04-.82.33-.59Z"/><path d="M19.01,38.63l1.23-.19c1.33,0,2.8-.04,4.1-.32.54-.12,1.09-.42,1.67-.5.12-.02.14-.12.27.08l-4.17,3.29-3.09-2.36Z"/><path d="M24.99,40.79c.31.92.73,1.79.94,2.75.08.36.31,1.72.22,2-.04.12-.14.19-.24.25l-2.98,1.49c-.19-.21.77-1.47.93-1.76.73-1.35,1.46-2.97.64-4.46l.48-.26Z"/><path d="M21.07,41.48l-1.96,3.79-3.01-.74.07-.58c1.42-.06,2.63-.9,3.75-1.7.18-.13.98-.92,1.15-.77Z"/><path d="M14.19,10.16c-1.06-.02-1.23.7-1.47,1.53-.04.14.06.17-.2.14-.33-.99-.78-1.98-.2-3l1.87,1.33Z"/><path d="M13.21,2.8c-.16-.15,1.01-.98,1.15-1.06,4.27-2.78,9.76.58,9.45,5.63-.28,4.74-5.3,8.87-9.91,6.77.15-.58.74-.13,1.22-.14,2.14-.06,4.24-3.67,4.7-5.52,1.07-4.34-2.76-6.72-6.61-5.67Z"/><polygon points="16.65 6.72 15.59 6.99 14.69 7.41 14.78 6.23 16.65 6.72"/><path d="M32.25,25.09c.28.71.86,1.33,1.22,1.97,1.12,2.01,2.31,4.92,3.71,6.7,1.67,2.11,4.27.57,4.79-1.6.79.22.15,1.68-.08,2.23-1.26,2.96-5.1,4.54-7.42,1.79l-5.45-9.19c-.04-.12.07-.16.15-.22.88-.62,2.12-1.15,3.07-1.68Z"/><path d="M19.1,19.19l3.79,9.12c1.36,1.92,3.98.76,4.07-1.37.34,0,.39.37.39.62-.08,3.02-3.46,6.14-6.27,4.03-1.83-1.37-3.16-6.32-4.21-8.55-.38-.8-1.05-1.53-1.2-2.48l3.43-1.38Z"/><path d="M23.81,12.42l7.84,11.07v.21s-2.88,1.97-2.88,1.97l-7.46-10.5c-.05-.17.8-1.08.98-1.28.23-.26,1.09-1.25,1.28-1.38.08-.06.1-.13.25-.1Z"/></svg>