<?xml version="1.0" encoding="iso-8859-1"?>
<!-- Generator: Adobe Illustrator 26.0.0, SVG Export Plug-In . SVG Version: 6.00 Build 0)  -->
<svg version="1.1" id="Capa_1" xmlns="http://www.w3.org/2000/svg" xmlns:xlink="http://www.w3.org/1999/xlink" x="0px" y="0px"
	 viewBox="0 0 48 48" style="enable-background:new 0 0 48 48;" xml:space="preserve">
<g>
	<g>
		<path style="fill:#FFFFFF;" d="M13.605,31.072c-1.755,0.01-3.322-1.187-3.427-3.009c-0.13-2.257,0.537-5.116,0.486-7.443
			l0.094-3.637l0.161-0.232c1.257-0.132,2.609,0.206,3.128,1.459c0.396,0.958,0.095,1.991,0.05,2.995
			C13.951,24.497,13.786,27.784,13.605,31.072z"/>
		<path style="fill:#FFFFFF;" d="M16.354,32.838c0.209,1.738,0.403,4.234,2.647,4.324l-0.088,0.443
			c-1.19,0.062-2.276-0.107-3.314-0.723c-1.159-0.688-2.156-1.845-2.552-3.142c-0.037-0.122-0.169-0.383-0.035-0.461L16.354,32.838z
			"/>
		<path style="fill:#FFFFFF;" d="M30.288,31.47c0.097,0.06,0.214,1.738,0.208,2.011c-0.028,1.219-0.471,2.667-1.103,3.707
			c-0.147,0.242-0.578,1.025-0.894,0.942l-2.62-2.051c2.194,0.679,3.681-2.281,4.079-4.021C30.016,31.8,29.916,31.243,30.288,31.47z
			"/>
		<path style="fill:#FFFFFF;" d="M19.006,38.629l1.227-0.194c1.326-0.001,2.801-0.041,4.099-0.319
			c0.539-0.115,1.093-0.424,1.666-0.498c0.125-0.016,0.138-0.119,0.272,0.081l-4.172,3.286L19.006,38.629z"/>
		<path style="fill:#FFFFFF;" d="M24.993,40.79c0.313,0.916,0.734,1.791,0.936,2.746c0.077,0.363,0.308,1.722,0.224,1.996
			c-0.037,0.121-0.138,0.192-0.242,0.249l-2.979,1.488c-0.189-0.21,0.774-1.471,0.934-1.765c0.735-1.352,1.456-2.974,0.644-4.459
			L24.993,40.79z"/>
		<path style="fill:#FFFFFF;" d="M21.066,41.478l-1.96,3.788l-3.007-0.741l0.073-0.579c1.421-0.059,2.627-0.902,3.749-1.7
			C20.1,42.119,20.905,41.328,21.066,41.478z"/>
		<path style="fill:#FFFFFF;" d="M14.194,10.159c-1.059-0.022-1.23,0.705-1.47,1.527c-0.042,0.144,0.055,0.171-0.198,0.143
			c-0.332-0.991-0.776-1.981-0.198-2.996L14.194,10.159z"/>
		<path style="fill:#FFFFFF;" d="M13.213,2.796c-0.164-0.152,1.015-0.975,1.147-1.061c4.268-2.782,9.757,0.577,9.454,5.626
			c-0.284,4.736-5.299,8.866-9.914,6.774c0.152-0.582,0.738-0.129,1.221-0.143c2.138-0.064,4.238-3.669,4.697-5.522
			C20.892,4.133,17.061,1.75,13.213,2.796z"/>
		<polygon style="fill:#FFFFFF;" points="16.648,6.725 15.587,6.987 14.686,7.411 14.784,6.233 		"/>
		<g>
			<path style="fill:#FFFFFF;" d="M32.25,25.088c0.277,0.71,0.865,1.326,1.225,1.969c1.123,2.005,2.31,4.925,3.71,6.697
				c1.67,2.114,4.266,0.573,4.794-1.603c0.795,0.218,0.151,1.682-0.081,2.227c-1.257,2.957-5.097,4.542-7.422,1.79l-5.447-9.187
				c-0.037-0.124,0.07-0.159,0.151-0.217C30.057,26.143,31.296,25.616,32.25,25.088z"/>
			<path style="fill:#FFFFFF;" d="M19.098,19.193l3.791,9.123c1.361,1.916,3.981,0.755,4.069-1.368
				c0.338-0.002,0.392,0.369,0.385,0.622c-0.076,3.023-3.464,6.136-6.268,4.033c-1.832-1.374-3.164-6.324-4.212-8.551
				c-0.376-0.8-1.054-1.528-1.195-2.48L19.098,19.193z"/>
			<path style="fill:#FFFFFF;" d="M23.814,12.418l7.837,11.068l0.007,0.211l-2.886,1.969l-7.459-10.498
				c-0.05-0.166,0.801-1.079,0.979-1.278c0.229-0.257,1.089-1.247,1.275-1.376C23.651,12.456,23.673,12.381,23.814,12.418z"/>
		</g>
	</g>
</g>
</svg>
